<?xml version="1.0" encoding="UTF-8" standalone="no"?>
<!-- Generator: Adobe Illustrator 21.0.2, SVG Export Plug-In . SVG Version: 6.00 Build 0)  -->

<svg
   xmlns:dc="http://purl.org/dc/elements/1.1/"
   xmlns:cc="http://creativecommons.org/ns#"
   xmlns:rdf="http://www.w3.org/1999/02/22-rdf-syntax-ns#"
   xmlns:svg="http://www.w3.org/2000/svg"
   xmlns="http://www.w3.org/2000/svg"
   xmlns:sodipodi="http://sodipodi.sourceforge.net/DTD/sodipodi-0.dtd"
   xmlns:inkscape="http://www.inkscape.org/namespaces/inkscape"
   version="1.1"
   id="Layer_1"
   x="0px"
   y="0px"
   viewBox="0 0 100 100"
   style="enable-background:new 0 0 100 100;"
   xml:space="preserve"
   sodipodi:docname="hangman 5.svg"
   inkscape:version="0.92.4 (f8dce91, 2019-08-02)"><metadata
   id="metadata3767"><rdf:RDF><cc:Work
       rdf:about=""><dc:format>image/svg+xml</dc:format><dc:type
         rdf:resource="http://purl.org/dc/dcmitype/StillImage" /><dc:title></dc:title></cc:Work></rdf:RDF></metadata><defs
   id="defs3765" /><sodipodi:namedview
   pagecolor="#ffffff"
   bordercolor="#666666"
   borderopacity="1"
   objecttolerance="10"
   gridtolerance="10"
   guidetolerance="10"
   inkscape:pageopacity="0"
   inkscape:pageshadow="2"
   inkscape:window-width="1920"
   inkscape:window-height="1004"
   id="namedview3763"
   showgrid="false"
   inkscape:zoom="8.23"
   inkscape:cx="50"
   inkscape:cy="50"
   inkscape:window-x="0"
   inkscape:window-y="0"
   inkscape:window-maximized="1"
   inkscape:current-layer="Layer_1" />
<path
   d="M 74,48.8 C 79.7,47.8 84,42.9 84,37 84,31.1 79.7,26.1 74,25.2 V 7 C 74,5.9 73.1,5 72,5 H 24 C 22.9,5 22,5.9 22,7 V 91 H 12 c -1.1,0 -2,0.9 -2,2 0,1.1 0.9,2 2,2 h 24 c 1.1,0 2,-0.9 2,-2 0,-1.1 -0.9,-2 -2,-2 H 26 V 27.8 L 44.8,9 H 70 v 16.2 c -5.7,1 -10,5.9 -10,11.8 0,5.9 4.3,10.9 10,11.8 18.696471,0.68428 -17.730144,-7.502984 4,0 z M 26,22.2 V 9 H 39.2 Z M 64,37 c 0,-4.4 3.6,-8 8,-8 4.4,0 8,3.6 8,8 0,4.4 -3.6,8 -8,8 -4.4,0 -8,-3.6 -8,-8 z"
   id="path3760"
   inkscape:connector-curvature="0"
   sodipodi:nodetypes="cscsssscsssssscccccsccccccsssss" />
</svg>